<svg width="20" height="20" viewBox="0 0 20 20" fill="none" xmlns="http://www.w3.org/2000/svg">
<path d="M0 3.57143C0 2.62423 0.376274 1.71582 1.04605 1.04605C1.71582 0.376274 2.62423 0 3.57143 0H16.4286C17.3758 0 18.2842 0.376274 18.954 1.04605C19.6237 1.71582 20 2.62423 20 3.57143V16.4286C20 17.3758 19.6237 18.2842 18.954 18.954C18.2842 19.6237 17.3758 20 16.4286 20H3.57143C2.62423 20 1.71582 19.6237 1.04605 18.954C0.376274 18.2842 0 17.3758 0 16.4286V3.57143ZM3.57143 1.42857C3.00311 1.42857 2.45806 1.65434 2.0562 2.0562C1.65434 2.45806 1.42857 3.00311 1.42857 3.57143V4.28571H18.5714V3.57143C18.5714 3.00311 18.3457 2.45806 17.9438 2.0562C17.5419 1.65434 16.9969 1.42857 16.4286 1.42857H3.57143ZM18.5714 5.71429H1.42857V16.4286C1.42857 16.9969 1.65434 17.5419 2.0562 17.9438C2.45806 18.3457 3.00311 18.5714 3.57143 18.5714H16.4286C16.9969 18.5714 17.5419 18.3457 17.9438 17.9438C18.3457 17.5419 18.5714 16.9969 18.5714 16.4286V5.71429ZM2.85714 8.57143C2.85714 8.19255 3.00765 7.82919 3.27556 7.56128C3.54347 7.29337 3.90683 7.14286 4.28571 7.14286H7.14286C7.52174 7.14286 7.8851 7.29337 8.15301 7.56128C8.42092 7.82919 8.57143 8.19255 8.57143 8.57143V15.7143C8.57143 16.0932 8.42092 16.4565 8.15301 16.7244C7.8851 16.9923 7.52174 17.1429 7.14286 17.1429H4.28571C3.90683 17.1429 3.54347 16.9923 3.27556 16.7244C3.00765 16.4565 2.85714 16.0932 2.85714 15.7143V8.57143ZM7.14286 8.57143H4.28571V15.7143H7.14286V8.57143ZM10 10.7143C10 10.5248 10.0753 10.3432 10.2092 10.2092C10.3432 10.0753 10.5248 10 10.7143 10H15C15.1894 10 15.3711 10.0753 15.5051 10.2092C15.639 10.3432 15.7143 10.5248 15.7143 10.7143C15.7143 10.9037 15.639 11.0854 15.5051 11.2194C15.3711 11.3533 15.1894 11.4286 15 11.4286H10.7143C10.5248 11.4286 10.3432 11.3533 10.2092 11.2194C10.0753 11.0854 10 10.9037 10 10.7143ZM10.7143 7.14286C10.5248 7.14286 10.3432 7.21811 10.2092 7.35207C10.0753 7.48602 10 7.6677 10 7.85714C10 8.04658 10.0753 8.22827 10.2092 8.36222C10.3432 8.49617 10.5248 8.57143 10.7143 8.57143H16.4286C16.618 8.57143 16.7997 8.49617 16.9336 8.36222C17.0676 8.22827 17.1429 8.04658 17.1429 7.85714C17.1429 7.6677 17.0676 7.48602 16.9336 7.35207C16.7997 7.21811 16.618 7.14286 16.4286 7.14286H10.7143Z" fill="black"/>
</svg>
