<svg width="21" height="17" viewBox="0 0 21 17" fill="none" xmlns="http://www.w3.org/2000/svg">
<rect width="21" height="17" fill="#E5E5E5"/>
<g clip-path="url(#clip0)">
<rect width="1440" height="1214" transform="translate(-32 -475)" fill="#F8FAFC"/>
<g filter="url(#filter0_d)">
<rect x="-31" y="-403" width="373" height="992" fill="white"/>
</g>
<rect x="-29.5" y="-12" width="371" height="40" fill="white"/>
<path d="M0.5 13V16H8.5V14.11H2.4V13C2.4 12.36 5.53 10.9 8.5 10.9C9.46 10.91 10.41 11.04 11.33 11.28L12.85 9.76C11.45 9.29 10 9.03 8.5 9C5.83 9 0.5 10.33 0.5 13ZM8.5 0C6.29 0 4.5 1.79 4.5 4C4.5 6.21 6.29 8 8.5 8C10.71 8 12.5 6.21 12.5 4C12.5 1.79 10.71 0 8.5 0ZM8.5 6C7.4 6 6.5 5.11 6.5 4C6.5 2.89 7.4 2 8.5 2C9.6 2 10.5 2.9 10.5 4C10.5 5.1 9.61 6 8.5 6ZM20.2 9.35L19.2 10.35L17.15 8.35L18.15 7.35C18.2528 7.24923 18.391 7.19278 18.535 7.19278C18.679 7.19278 18.8172 7.24923 18.92 7.35L20.2 8.63C20.41 8.84 20.41 9.19 20.2 9.4V9.35ZM10.5 14.94L16.56 8.88L18.61 10.88L12.61 16.95H10.5V14.94Z" fill="black"/>
</g>
<defs>
<filter id="filter0_d" x="-47" y="-411" width="405" height="1024" filterUnits="userSpaceOnUse" color-interpolation-filters="sRGB">
<feFlood flood-opacity="0" result="BackgroundImageFix"/>
<feColorMatrix in="SourceAlpha" type="matrix" values="0 0 0 0 0 0 0 0 0 0 0 0 0 0 0 0 0 0 127 0"/>
<feOffset dy="8"/>
<feGaussianBlur stdDeviation="8"/>
<feColorMatrix type="matrix" values="0 0 0 0 0.0705882 0 0 0 0 0.0784314 0 0 0 0 0.243137 0 0 0 0.06 0"/>
<feBlend mode="normal" in2="BackgroundImageFix" result="effect1_dropShadow"/>
<feBlend mode="normal" in="SourceGraphic" in2="effect1_dropShadow" result="shape"/>
</filter>
<clipPath id="clip0">
<rect width="1440" height="1214" fill="white" transform="translate(-32 -475)"/>
</clipPath>
</defs>
</svg>
