<svg width="21" height="18" viewBox="0 0 21 18" fill="none" xmlns="http://www.w3.org/2000/svg">
<path d="M17 5.99991C16.3811 6.00165 15.7778 6.19479 15.2729 6.55285C14.7681 6.91091 14.3863 7.41636 14.18 7.99991H1C0.734784 7.99991 0.48043 8.10527 0.292893 8.29281C0.105357 8.48034 0 8.7347 0 8.99991C0 9.26513 0.105357 9.51948 0.292893 9.70702C0.48043 9.89456 0.734784 9.99991 1 9.99991H14.18C14.3635 10.5188 14.6861 10.9772 15.1126 11.325C15.5392 11.6728 16.0532 11.8965 16.5984 11.9717C17.1435 12.047 17.6989 11.9708 18.2037 11.7515C18.7085 11.5322 19.1432 11.1783 19.4603 10.7285C19.7775 10.2787 19.9647 9.75033 20.0017 9.20121C20.0386 8.6521 19.9238 8.10341 19.6697 7.61519C19.4157 7.12697 19.0323 6.71803 18.5614 6.43314C18.0905 6.14824 17.5504 5.99837 17 5.99991ZM17 9.99991C16.8022 9.99991 16.6089 9.94127 16.4444 9.83138C16.28 9.7215 16.1518 9.56532 16.0761 9.3826C16.0004 9.19987 15.9806 8.99881 16.0192 8.80482C16.0578 8.61084 16.153 8.43266 16.2929 8.29281C16.4327 8.15296 16.6109 8.05771 16.8049 8.01913C16.9989 7.98054 17.2 8.00035 17.3827 8.07603C17.5654 8.15172 17.7216 8.27989 17.8315 8.44434C17.9414 8.60879 18 8.80213 18 8.99991C18 9.26513 17.8946 9.51948 17.7071 9.70702C17.5196 9.89456 17.2652 9.99991 17 9.99991ZM1 3.99991H2.18C2.3902 4.57907 2.77363 5.07945 3.27817 5.43307C3.7827 5.78669 4.38388 5.97639 5 5.97639C5.61612 5.97639 6.2173 5.78669 6.72184 5.43307C7.22637 5.07945 7.6098 4.57907 7.82 3.99991H19C19.2652 3.99991 19.5196 3.89456 19.7071 3.70702C19.8946 3.51948 20 3.26513 20 2.99991C20 2.7347 19.8946 2.48034 19.7071 2.29281C19.5196 2.10527 19.2652 1.99991 19 1.99991H7.82C7.6098 1.42076 7.22637 0.920374 6.72184 0.566756C6.2173 0.213137 5.61612 0.0234375 5 0.0234375C4.38388 0.0234375 3.7827 0.213137 3.27817 0.566756C2.77363 0.920374 2.3902 1.42076 2.18 1.99991H1C0.734784 1.99991 0.48043 2.10527 0.292893 2.29281C0.105357 2.48034 0 2.7347 0 2.99991C0 3.26513 0.105357 3.51948 0.292893 3.70702C0.48043 3.89456 0.734784 3.99991 1 3.99991ZM5 1.99991C5.19778 1.99991 5.39112 2.05856 5.55557 2.16844C5.72002 2.27833 5.84819 2.4345 5.92388 2.61723C5.99957 2.79996 6.01937 3.00102 5.98079 3.195C5.9422 3.38899 5.84696 3.56717 5.70711 3.70702C5.56725 3.84687 5.38907 3.94211 5.19509 3.9807C5.00111 4.01928 4.80004 3.99948 4.61732 3.92379C4.43459 3.84811 4.27841 3.71993 4.16853 3.55548C4.05865 3.39104 4 3.1977 4 2.99991C4 2.7347 4.10536 2.48034 4.29289 2.29281C4.48043 2.10527 4.73478 1.99991 5 1.99991ZM19 13.9999H11.82C11.6098 13.4208 11.2264 12.9204 10.7218 12.5668C10.2173 12.2131 9.61612 12.0234 9 12.0234C8.38388 12.0234 7.7827 12.2131 7.27816 12.5668C6.77363 12.9204 6.3902 13.4208 6.18 13.9999H1C0.734784 13.9999 0.48043 14.1053 0.292893 14.2928C0.105357 14.4803 0 14.7347 0 14.9999C0 15.2651 0.105357 15.5195 0.292893 15.707C0.48043 15.8946 0.734784 15.9999 1 15.9999H6.18C6.3902 16.5791 6.77363 17.0795 7.27816 17.4331C7.7827 17.7867 8.38388 17.9764 9 17.9764C9.61612 17.9764 10.2173 17.7867 10.7218 17.4331C11.2264 17.0795 11.6098 16.5791 11.82 15.9999H19C19.2652 15.9999 19.5196 15.8946 19.7071 15.707C19.8946 15.5195 20 15.2651 20 14.9999C20 14.7347 19.8946 14.4803 19.7071 14.2928C19.5196 14.1053 19.2652 13.9999 19 13.9999ZM9 15.9999C8.80222 15.9999 8.60888 15.9413 8.44443 15.8314C8.27998 15.7215 8.15181 15.5653 8.07612 15.3826C8.00043 15.1999 7.98063 14.9988 8.01921 14.8048C8.0578 14.6108 8.15304 14.4327 8.29289 14.2928C8.43275 14.153 8.61093 14.0577 8.80491 14.0191C8.99889 13.9805 9.19996 14.0003 9.38268 14.076C9.56541 14.1517 9.72159 14.2799 9.83147 14.4443C9.94135 14.6088 10 14.8021 10 14.9999C10 15.2651 9.89464 15.5195 9.70711 15.707C9.51957 15.8946 9.26522 15.9999 9 15.9999Z" fill="#3772FF"/>
</svg>
