<svg width="25" height="24" viewBox="0 0 25 24" fill="none" xmlns="http://www.w3.org/2000/svg">
<path d="M12.4337 11.5333C14.2337 11.5333 15.6337 10.0667 15.6337 8.26665C15.6337 6.46665 14.167 5.06665 12.367 5.06665C10.567 5.06665 9.16699 6.53332 9.16699 8.26665C9.16699 10.0667 10.6337 11.5333 12.4337 11.5333ZM12.367 6.39998C12.4337 6.39998 12.4337 6.39998 12.367 6.39998C13.4337 6.39998 14.3003 7.26665 14.3003 8.33332C14.3003 9.39998 13.4337 10.2 12.367 10.2C11.3003 10.2 10.5003 9.33332 10.5003 8.33332C10.5003 7.26665 11.367 6.39998 12.367 6.39998Z" fill="black"/>
<path d="M22.3 11.1334C21.0333 10 19.3667 9.40002 17.6333 9.46669H17.1C16.9667 10 16.7667 10.4667 16.5 10.8667C16.9 10.8 17.2333 10.8 17.6333 10.8C18.9 10.7334 20.1667 11.1334 21.1667 11.8667V16.6667H22.5V11.3334L22.3 11.1334Z" fill="black"/>
<path d="M16.1003 5.20003C16.4337 4.40003 17.367 4.00003 18.2337 4.33337C19.0337 4.6667 19.4337 5.60003 19.1003 6.4667C18.8337 7.0667 18.2337 7.4667 17.6337 7.4667C17.5003 7.4667 17.3003 7.4667 17.167 7.40003C17.2337 7.73337 17.2337 8.0667 17.2337 8.33336V8.73337C17.367 8.73337 17.5003 8.80003 17.6337 8.80003C19.3003 8.80003 20.6337 7.4667 20.6337 5.8667C20.6337 4.20003 19.3003 2.8667 17.7003 2.8667C16.6337 2.8667 15.7003 3.40003 15.167 4.33337C15.5003 4.53337 15.8337 4.80003 16.1003 5.20003Z" fill="black"/>
<path d="M8.5 10.9333C8.23333 10.5333 8.03333 10.0667 7.9 9.53335H7.36667C5.63333 9.46668 3.96667 10.0667 2.7 11.1333L2.5 11.3333V16.6667H3.83333V11.8667C4.9 11.1333 6.1 10.7333 7.36667 10.8C7.76667 10.8 8.16667 10.8667 8.5 10.9333Z" fill="black"/>
<path d="M7.36619 8.73311C7.49952 8.73311 7.63285 8.73311 7.76619 8.66645V8.26645C7.76619 7.93311 7.76619 7.59978 7.83285 7.33311C7.69952 7.39978 7.49952 7.39978 7.36619 7.39978C6.49952 7.39978 5.76619 6.66645 5.76619 5.79978C5.76619 4.93311 6.49952 4.19978 7.36619 4.19978C8.03285 4.19978 8.63285 4.59978 8.89952 5.19978C9.16619 4.86645 9.56619 4.53311 9.89952 4.26645C9.03286 2.86645 7.23285 2.39978 5.83285 3.26645C4.43285 4.13311 3.96619 5.93311 4.83285 7.33311C5.36619 8.19978 6.29952 8.73311 7.36619 8.73311Z" fill="black"/>
<path d="M17.9003 15.1333L17.767 14.9333C16.4337 13.4667 14.567 12.6 12.567 12.6667C10.567 12.6 8.63366 13.4667 7.30033 14.9333L7.16699 15.1333V20.2C7.16699 20.8 7.63366 21.3333 8.30033 21.3333H16.8337C17.4337 21.3333 17.967 20.8 17.967 20.2V15.1333H17.9003ZM16.567 20H8.50033V15.6C9.56699 14.5333 11.0337 14 12.567 14C14.0337 13.9333 15.5003 14.5333 16.567 15.6V20Z" fill="black"/>
</svg>
