<svg width="167" height="28" viewBox="0 0 167 28" fill="none" xmlns="http://www.w3.org/2000/svg">
<path d="M42.78 22C42.02 22 41.3667 21.7333 40.82 21.2C40.2867 20.6533 40.02 20 40.02 19.24V13.16C40.02 12.4 40.2867 11.7533 40.82 11.22C41.3667 10.6733 42.02 10.4 42.78 10.4H51.78V13.02H43.34C42.9667 13.02 42.7533 13.0467 42.7 13.1C42.66 13.14 42.64 13.3467 42.64 13.72V18.68C42.64 19.0533 42.66 19.2667 42.7 19.32C42.7533 19.36 42.9667 19.38 43.34 19.38H51.8V22H42.78ZM56.7063 22C55.9463 22 55.2929 21.7333 54.7463 21.2C54.2129 20.6533 53.9463 20 53.9463 19.24V6.58H56.5863V18.68C56.5863 19.0533 56.6063 19.2667 56.6463 19.32C56.6996 19.36 56.9063 19.38 57.2663 19.38H59.0463V22H56.7063ZM63.2878 22C62.5278 22 61.8745 21.7333 61.3278 21.2C60.7945 20.6533 60.5278 20 60.5278 19.24V13.16C60.5278 12.4 60.7945 11.7533 61.3278 11.22C61.8745 10.6733 62.5278 10.4 63.2878 10.4H69.5478C70.3078 10.4 70.9545 10.6733 71.4878 11.22C72.0345 11.7533 72.3078 12.4 72.3078 13.16V19.24C72.3078 20 72.0345 20.6533 71.4878 21.2C70.9545 21.7333 70.3078 22 69.5478 22H63.2878ZM63.8478 19.38H68.9878C69.3611 19.38 69.5678 19.36 69.6078 19.32C69.6611 19.2667 69.6878 19.0533 69.6878 18.68V13.72C69.6878 13.3467 69.6611 13.14 69.6078 13.1C69.5678 13.0467 69.3611 13.02 68.9878 13.02H63.8478C63.4745 13.02 63.2611 13.0467 63.2078 13.1C63.1678 13.14 63.1478 13.3467 63.1478 13.72V18.68C63.1478 19.0533 63.1678 19.2667 63.2078 19.32C63.2611 19.36 63.4745 19.38 63.8478 19.38ZM76.6481 22C75.8881 22 75.2348 21.7333 74.6881 21.2C74.1548 20.6533 73.8881 20 73.8881 19.24V10.4H76.5081V18.68C76.5081 19.0533 76.5281 19.2667 76.5681 19.32C76.6215 19.36 76.8348 19.38 77.2081 19.38H82.3481C82.7215 19.38 82.9281 19.36 82.9681 19.32C83.0215 19.2667 83.0481 19.0533 83.0481 18.68V10.4H85.6681V19.24C85.6681 20 85.3948 20.6533 84.8481 21.2C84.3148 21.7333 83.6681 22 82.9081 22H76.6481ZM90.1052 22C89.3452 22 88.6918 21.7333 88.1452 21.2C87.6118 20.6533 87.3452 20 87.3452 19.24V6.84H89.9652V10.4H94.4852V13.02H89.9652V18.68C89.9652 19.0533 89.9852 19.2667 90.0252 19.32C90.0785 19.36 90.2918 19.38 90.6652 19.38H94.4852V22H90.1052ZM99.2844 22C98.5244 22 97.871 21.7333 97.3244 21.2C96.791 20.6533 96.5244 20 96.5244 19.24V14.88H105.684V13.72C105.684 13.3467 105.658 13.14 105.604 13.1C105.564 13.0467 105.358 13.02 104.984 13.02H96.5244V10.4H105.544C106.304 10.4 106.951 10.6733 107.484 11.22C108.031 11.7533 108.304 12.4 108.304 13.16V22H99.2844ZM99.8444 19.38H105.684V17.24H99.1444V18.68C99.1444 19.0533 99.1644 19.2667 99.2044 19.32C99.2577 19.36 99.471 19.38 99.8444 19.38ZM115.507 22L109.127 10.4H112.147L116.727 18.82L121.287 10.4H124.307L117.907 22H115.507ZM125.685 22V10.4H128.305V22H125.685ZM125.685 9.24V6.6H128.305V9.24H125.685ZM133.365 22C132.605 22 131.951 21.7333 131.405 21.2C130.871 20.6533 130.605 20 130.605 19.24V18.8H133.225V18.92C133.225 19.1333 133.245 19.2667 133.285 19.32C133.338 19.36 133.471 19.38 133.685 19.38H139.305C139.505 19.38 139.631 19.36 139.685 19.32C139.738 19.2667 139.765 19.1333 139.765 18.92V17.98C139.765 17.7667 139.738 17.64 139.685 17.6C139.631 17.5467 139.505 17.52 139.305 17.52H133.365C132.605 17.52 131.951 17.2467 131.405 16.7C130.871 16.1533 130.605 15.5067 130.605 14.76V13.16C130.605 12.4 130.871 11.7533 131.405 11.22C131.951 10.6733 132.605 10.4 133.365 10.4H139.625C140.385 10.4 141.038 10.6733 141.585 11.22C142.131 11.7533 142.405 12.4 142.405 13.16V13.6H139.765V13.48C139.765 13.2667 139.738 13.14 139.685 13.1C139.631 13.0467 139.505 13.02 139.305 13.02H133.685C133.471 13.02 133.338 13.0467 133.285 13.1C133.245 13.14 133.225 13.2667 133.225 13.48V14.42C133.225 14.6333 133.245 14.7667 133.285 14.82C133.338 14.86 133.471 14.88 133.685 14.88H139.625C140.385 14.88 141.038 15.1533 141.585 15.7C142.131 16.2467 142.405 16.8933 142.405 17.64V19.24C142.405 20 142.131 20.6533 141.585 21.2C141.038 21.7333 140.385 22 139.625 22H133.365ZM147.175 22C146.415 22 145.762 21.7333 145.215 21.2C144.682 20.6533 144.415 20 144.415 19.24V6.84H147.035V10.4H151.555V13.02H147.035V18.68C147.035 19.0533 147.055 19.2667 147.095 19.32C147.149 19.36 147.362 19.38 147.735 19.38H151.555V22H147.175ZM156.355 22C155.595 22 154.941 21.7333 154.395 21.2C153.861 20.6533 153.595 20 153.595 19.24V14.88H162.755V13.72C162.755 13.3467 162.728 13.14 162.675 13.1C162.635 13.0467 162.428 13.02 162.055 13.02H153.595V10.4H162.615C163.375 10.4 164.021 10.6733 164.555 11.22C165.101 11.7533 165.375 12.4 165.375 13.16V22H156.355ZM156.915 19.38H162.755V17.24H156.215V18.68C156.215 19.0533 156.235 19.2667 156.275 19.32C156.328 19.36 156.541 19.38 156.915 19.38Z" fill="#3772FF"/>
<path d="M16 1L23.0312 13.6562L16.8438 26.5L1.00002 13.6562L7.00001 8.59374L16 1Z" fill="white"/>
<path d="M16 1L23.0312 13.6562L16.8438 26.5M16 1L8.68751 13.6562L16.8438 26.5M16 1L7.00001 8.59374L1.00002 13.6562L16.8438 26.5" stroke="#3772FF" stroke-linecap="round" stroke-linejoin="round"/>
<path d="M16 1L23.0312 13.6562L16.8438 26.5L1.00002 13.6562L7.00001 8.59374L16 1Z" fill="white"/>
<path d="M16 1L23.0312 13.6562L16.8438 26.5M16 1L8.68751 13.6562L16.8438 26.5M16 1L7.00001 8.59374L1.00002 13.6562L16.8438 26.5" stroke="#3772FF" stroke-linecap="round" stroke-linejoin="round"/>
<path d="M11.5 11.5937L24.1562 4.5625L37 10.75L24.1562 26.5937L19.0937 20.5937L11.5 11.5937Z" fill="white"/>
<path d="M11.5 11.5937L24.1562 4.5625L37 10.75M11.5 11.5937L24.1562 18.9062L37 10.75M11.5 11.5937L19.0937 20.5937L24.1562 26.5937L37 10.75" stroke="#3772FF" stroke-linecap="round" stroke-linejoin="round"/>
</svg>
