<svg width="38" height="28" fill="#fff" xmlns="http://www.w3.org/2000/svg">
<path d="M16 1l7.031 12.656L16.844 26.5 1 13.656l6-5.062L16 1z" fill="#fff"></path>
<path d="M16 1l7.031 12.656L16.844 26.5M16 1L8.688 13.656 16.844 26.5M16 1L7 8.594l-6 5.062L16.844 26.5" stroke="#3772FF" stroke-linecap="round" stroke-linejoin="round"></path>
<path d="M16 1l7.031 12.656L16.844 26.5 1 13.656l6-5.062L16 1z" fill="#fff"></path>
<path d="M16 1l7.031 12.656L16.844 26.5M16 1L8.688 13.656 16.844 26.5M16 1L7 8.594l-6 5.062L16.844 26.5" stroke="#3772FF" stroke-linecap="round" stroke-linejoin="round"></path>
<path d="M11.5 11.594l12.656-7.031L37 10.75 24.156 26.594l-5.062-6-7.594-9z" fill="#fff"></path>
<path d="M11.5 11.594l12.656-7.031L37 10.75m-25.5.844l12.656 7.312L37 10.75m-25.5.844l7.594 9 5.062 6L37 10.75" stroke="#3772FF" stroke-linecap="round" stroke-linejoin="round"></path>
</svg>