<svg version="1.0" xmlns="http://www.w3.org/2000/svg"
 width="25" height="23.5" viewBox="0 0 78.000000 91.000000"
 preserveAspectRatio="xMidYMid meet">
<g transform="translate(0.000000,91.000000) scale(0.100000,-0.100000)"
fill="#000000" stroke="none">
<path d="M250 792 c-69 -37 -131 -71 -138 -75 -8 -5 14 -38 73 -105 96 -111
97 -100 -17 -158 -66 -33 -81 -50 -55 -59 7 -3 73 -77 146 -165 74 -87 138
-157 143 -154 10 6 278 342 278 349 0 3 -36 23 -81 45 l-80 41 52 67 c29 37
65 81 81 97 15 17 28 36 28 41 0 11 -277 145 -295 143 -5 0 -66 -31 -135 -67z
m275 -16 l129 -62 -125 -77 c-69 -42 -131 -77 -138 -77 -13 0 -239 129 -246
141 -4 6 230 138 245 138 3 0 63 -28 135 -63z m-21 -248 c-52 -68 -99 -124
-103 -126 -4 -1 -54 52 -111 119 -57 67 -99 120 -94 118 5 -2 51 -28 102 -58
l93 -53 97 60 c53 33 100 60 105 61 4 1 -36 -54 -89 -121z m-161 -100 l57 -63
33 39 c17 22 41 50 52 63 l20 24 72 -33 c40 -18 72 -35 72 -38 0 -3 -58 -40
-129 -83 l-130 -78 -125 73 c-69 40 -125 75 -125 78 0 5 130 79 140 80 3 0 31
-28 63 -62z m245 -86 c-7 -10 -53 -68 -101 -130 l-89 -112 -61 73 c-117 138
-152 181 -142 176 6 -3 49 -29 96 -57 48 -29 93 -52 100 -52 8 0 57 27 109 60
52 33 96 60 98 60 2 0 -3 -8 -10 -18z"/>
</g>
</svg>
