<svg width="14" height="15" viewBox="0 0 14 15" fill="none" xmlns="http://www.w3.org/2000/svg">
<rect width="14" height="15" fill="#E5E5E5"/>
<g clip-path="url(#clip0)">
<rect width="1440" height="1214" transform="translate(-36 -158)" fill="#F8FAFC"/>
<g filter="url(#filter0_d)">
<rect x="-35" y="-86" width="373" height="992" fill="white"/>
</g>
<rect x="-33.5" y="-13" width="371" height="40" fill="white"/>
<path fill-rule="evenodd" clip-rule="evenodd" d="M13 12.5V2.5C13 1.96957 12.7893 1.46086 12.4142 1.08579C12.0391 0.710714 11.5304 0.5 11 0.5H3C2.46957 0.5 1.96086 0.710714 1.58579 1.08579C1.21071 1.46086 1 1.96957 1 2.5V12.5C1 13.0304 1.21071 13.5391 1.58579 13.9142C1.96086 14.2893 2.46957 14.5 3 14.5H11C11.5304 14.5 12.0391 14.2893 12.4142 13.9142C12.7893 13.5391 13 13.0304 13 12.5V12.5Z" stroke="black" stroke-linecap="round" stroke-linejoin="round"/>
<path d="M4 5.5H9" stroke="black" stroke-linecap="round" stroke-linejoin="round"/>
<path d="M4 7.5H10" stroke="black" stroke-linecap="round" stroke-linejoin="round"/>
<path d="M4 9.5H7" stroke="black" stroke-linecap="round" stroke-linejoin="round"/>
</g>
<defs>
<filter id="filter0_d" x="-51" y="-94" width="405" height="1024" filterUnits="userSpaceOnUse" color-interpolation-filters="sRGB">
<feFlood flood-opacity="0" result="BackgroundImageFix"/>
<feColorMatrix in="SourceAlpha" type="matrix" values="0 0 0 0 0 0 0 0 0 0 0 0 0 0 0 0 0 0 127 0"/>
<feOffset dy="8"/>
<feGaussianBlur stdDeviation="8"/>
<feColorMatrix type="matrix" values="0 0 0 0 0.0705882 0 0 0 0 0.0784314 0 0 0 0 0.243137 0 0 0 0.06 0"/>
<feBlend mode="normal" in2="BackgroundImageFix" result="effect1_dropShadow"/>
<feBlend mode="normal" in="SourceGraphic" in2="effect1_dropShadow" result="shape"/>
</filter>
<clipPath id="clip0">
<rect width="1440" height="1214" fill="white" transform="translate(-36 -158)"/>
</clipPath>
</defs>
</svg>
