<svg width="18" height="18" viewBox="0 0 20 20" fill="none" xmlns="http://www.w3.org/2000/svg">
<path d="M18 0H2C1.47024 0.00219364 0.962808 0.213612 0.58821 0.58821C0.213612 0.962808 0.00219364 1.47024 0 2L0 18C0.00219364 18.5298 0.213612 19.0372 0.58821 19.4118C0.962808 19.7864 1.47024 19.9978 2 20H18C18.5298 19.9978 19.0372 19.7864 19.4118 19.4118C19.7864 19.0372 19.9978 18.5298 20 18V2C19.9978 1.47024 19.7864 0.962808 19.4118 0.58821C19.0372 0.213612 18.5298 0.00219364 18 0V0ZM5.87083 12.0542C6.29518 12.2475 6.77897 12.2644 7.21577 12.1011C7.65257 11.9378 8.00661 11.6077 8.2 11.1833H9.58333C9.40503 11.9138 8.96523 12.5537 8.34711 12.9819C7.72899 13.4101 6.97539 13.597 6.22883 13.5072C5.48226 13.4174 4.79447 13.0571 4.29552 12.4946C3.79656 11.932 3.52104 11.2061 3.52104 10.4542C3.52104 9.70222 3.79656 8.97633 4.29552 8.41377C4.79447 7.85121 5.48226 7.49097 6.22883 7.40117C6.97539 7.31137 7.72899 7.49825 8.34711 7.92645C8.96523 8.35465 9.40503 8.9945 9.58333 9.725H8.2C8.08224 9.46659 7.90365 9.24055 7.6795 9.06621C7.45535 8.89186 7.19231 8.7744 6.91287 8.72387C6.63343 8.67334 6.34591 8.69123 6.0749 8.77603C5.80388 8.86083 5.55744 9.01001 5.35664 9.21081C5.15584 9.41161 5.00666 9.65805 4.92187 9.92906C4.83707 10.2001 4.81917 10.4876 4.8697 10.767C4.92024 11.0465 5.0377 11.3095 5.21204 11.5337C5.38639 11.7578 5.61243 11.9364 5.87083 12.0542ZM15.325 12.7583C15.0634 12.9835 14.7645 13.1612 14.4417 13.2833C13.9802 13.4625 13.4822 13.5272 12.9903 13.4721C12.4983 13.417 12.027 13.2435 11.6167 12.9667V13.2833H10.3583V4.475H11.6083V7.9C12.0546 7.59832 12.5714 7.41744 13.1083 7.375H13.3333C13.959 7.37402 14.5699 7.56498 15.0837 7.9221C15.5975 8.27922 15.9893 8.78533 16.2064 9.37214C16.4235 9.95895 16.4554 10.5982 16.2978 11.2037C16.1402 11.8092 15.8007 12.3518 15.325 12.7583ZM15.1392 10.4533C15.1443 10.6867 15.1027 10.9188 15.0169 11.136C14.9311 11.3531 14.8028 11.5509 14.6395 11.7178C14.4762 11.8846 14.2812 12.0172 14.066 12.1077C13.8508 12.1983 13.6197 12.2449 13.3862 12.2449C13.1528 12.2449 12.9217 12.1983 12.7065 12.1077C12.4913 12.0172 12.2963 11.8846 12.133 11.7178C11.9697 11.5509 11.8414 11.3531 11.7556 11.136C11.6698 10.9188 11.6282 10.6867 11.6333 10.4533C11.6433 9.99505 11.8324 9.5589 12.16 9.23832C12.4877 8.91774 12.9279 8.73822 13.3862 8.73822C13.8446 8.73822 14.2848 8.91774 14.6125 9.23832C14.9401 9.5589 15.1292 9.99505 15.1392 10.4533Z" fill="#3772FF"/>
</svg>
