<svg width="17" height="15" viewBox="0 0 17 15" fill="none" xmlns="http://www.w3.org/2000/svg">
<rect width="17" height="15" fill="#E5E5E5"/>
<g clip-path="url(#clip0)">
<rect width="1440" height="1214" transform="translate(-34 -575)" fill="#F8FAFC"/>
<g filter="url(#filter0_d)">
<rect x="-33" y="-503" width="373" height="992" fill="white"/>
</g>
<rect x="-31.5" y="-12" width="371" height="40" fill="white"/>
<path d="M10.975 6.01401C11.2201 6.01407 11.4566 6.10414 11.6397 6.2671C11.8228 6.43007 11.9396 6.65458 11.968 6.89801L11.975 7.01401V11.382C11.9816 12.2939 11.6303 13.1719 10.9967 13.8278C10.3631 14.4836 9.49768 14.8648 8.58614 14.8897C7.67459 14.9146 6.78963 14.5811 6.12122 13.9608C5.4528 13.3405 5.05422 12.4829 5.01103 11.572L5.00603 11.382V7.01401C5.00609 6.76893 5.09615 6.5324 5.25912 6.34934C5.42208 6.16628 5.6466 6.04944 5.89003 6.02101L6.00603 6.01401H10.975ZM10.975 7.01401H6.00603V11.382C6.00458 12.0277 6.25458 12.6485 6.70304 13.113C7.1515 13.5774 7.76319 13.8491 8.40848 13.8702C9.05378 13.8914 9.68197 13.6605 10.1599 13.2265C10.6379 12.7925 10.9281 12.1894 10.969 11.545L10.975 11.382V7.01401ZM4.27503 6.01401C4.12952 6.26508 4.04078 6.54497 4.01503 6.83401L4.00603 7.01401H1.51603V10.754C1.51592 11.0641 1.59349 11.3692 1.74164 11.6415C1.8898 11.9139 2.10382 12.1448 2.36417 12.3132C2.62452 12.4815 2.9229 12.582 3.23206 12.6054C3.54123 12.6287 3.85132 12.5743 4.13403 12.447C4.21403 12.776 4.33003 13.091 4.47903 13.387C4.05795 13.5639 3.60059 13.6371 3.14534 13.6007C2.69008 13.5643 2.2502 13.4192 1.86259 13.1777C1.47499 12.9361 1.15097 12.6051 0.917711 12.2125C0.684454 11.8198 0.548766 11.3769 0.522029 10.921L0.517029 10.753V7.01401C0.517061 6.76908 0.606985 6.53268 0.769744 6.34964C0.932503 6.16661 1.15678 6.04967 1.40003 6.02101L1.51703 6.01401H4.27403H4.27503ZM12.707 6.01401H15.491C15.7361 6.01407 15.9726 6.10414 16.1557 6.2671C16.3388 6.43007 16.4556 6.65458 16.484 6.89801L16.491 7.01401V10.754C16.4911 11.2269 16.3737 11.6924 16.1494 12.1088C15.9251 12.5251 15.6009 12.8792 15.206 13.1393C14.811 13.3995 14.3577 13.5575 13.8866 13.5991C13.4155 13.6408 12.9415 13.5648 12.507 13.378C12.655 13.08 12.771 12.765 12.85 12.435C13.1217 12.5618 13.42 12.6208 13.7194 12.6071C14.0188 12.5935 14.3105 12.5075 14.5695 12.3565C14.8284 12.2056 15.047 11.9942 15.2064 11.7403C15.3659 11.4865 15.4615 11.1978 15.485 10.899L15.491 10.754V7.01401H12.975L12.969 6.86501C12.9472 6.56518 12.8576 6.27421 12.707 6.01401ZM8.48903 0.989014C9.0798 0.989014 9.64637 1.2237 10.0641 1.64143C10.4818 2.05917 10.7165 2.62574 10.7165 3.21651C10.7165 3.80728 10.4818 4.37386 10.0641 4.79159C9.64637 5.20933 9.0798 5.44401 8.48903 5.44401C7.89826 5.44401 7.33169 5.20933 6.91395 4.79159C6.49621 4.37386 6.26153 3.80728 6.26153 3.21651C6.26153 2.62574 6.49621 2.05917 6.91395 1.64143C7.33169 1.2237 7.89826 0.989014 8.48903 0.989014ZM13.476 1.61701C13.9835 1.61701 14.4702 1.81861 14.8291 2.17746C15.1879 2.53632 15.3895 3.02302 15.3895 3.53051C15.3895 4.03801 15.1879 4.52471 14.8291 4.88356C14.4702 5.24241 13.9835 5.44401 13.476 5.44401C12.9685 5.44401 12.4818 5.24241 12.123 4.88356C11.7641 4.52471 11.5625 4.03801 11.5625 3.53051C11.5625 3.02302 11.7641 2.53632 12.123 2.17746C12.4818 1.81861 12.9685 1.61701 13.476 1.61701ZM3.51703 1.61701C4.02452 1.61701 4.51123 1.81861 4.87008 2.17746C5.22893 2.53632 5.43053 3.02302 5.43053 3.53051C5.43053 4.03801 5.22893 4.52471 4.87008 4.88356C4.51123 5.24241 4.02452 5.44401 3.51703 5.44401C3.00954 5.44401 2.52283 5.24241 2.16398 4.88356C1.80513 4.52471 1.60353 4.03801 1.60353 3.53051C1.60353 3.02302 1.80513 2.53632 2.16398 2.17746C2.52283 1.81861 3.00954 1.61701 3.51703 1.61701ZM8.48903 1.98901C8.16348 1.98901 7.85126 2.11834 7.62105 2.34854C7.39085 2.57874 7.26153 2.89096 7.26153 3.21651C7.26153 3.54207 7.39085 3.85429 7.62105 4.08449C7.85126 4.31469 8.16348 4.44401 8.48903 4.44401C8.81458 4.44401 9.1268 4.31469 9.357 4.08449C9.5872 3.85429 9.71653 3.54207 9.71653 3.21651C9.71653 2.89096 9.5872 2.57874 9.357 2.34854C9.1268 2.11834 8.81458 1.98901 8.48903 1.98901ZM13.476 2.61701C13.2338 2.61701 13.0014 2.71326 12.8301 2.88457C12.6588 3.05589 12.5625 3.28824 12.5625 3.53051C12.5625 3.77279 12.6588 4.00514 12.8301 4.17646C13.0014 4.34777 13.2338 4.44401 13.476 4.44401C13.7183 4.44401 13.9507 4.34777 14.122 4.17646C14.2933 4.00514 14.3895 3.77279 14.3895 3.53051C14.3895 3.28824 14.2933 3.05589 14.122 2.88457C13.9507 2.71326 13.7183 2.61701 13.476 2.61701ZM3.51703 2.61701C3.27475 2.61701 3.0424 2.71326 2.87109 2.88457C2.69977 3.05589 2.60353 3.28824 2.60353 3.53051C2.60353 3.77279 2.69977 4.00514 2.87109 4.17646C3.0424 4.34777 3.27475 4.44401 3.51703 4.44401C3.7593 4.44401 3.99166 4.34777 4.16297 4.17646C4.33429 4.00514 4.43053 3.77279 4.43053 3.53051C4.43053 3.28824 4.33429 3.05589 4.16297 2.88457C3.99166 2.71326 3.7593 2.61701 3.51703 2.61701Z" fill="black"/>
</g>
<defs>
<filter id="filter0_d" x="-49" y="-511" width="405" height="1024" filterUnits="userSpaceOnUse" color-interpolation-filters="sRGB">
<feFlood flood-opacity="0" result="BackgroundImageFix"/>
<feColorMatrix in="SourceAlpha" type="matrix" values="0 0 0 0 0 0 0 0 0 0 0 0 0 0 0 0 0 0 127 0"/>
<feOffset dy="8"/>
<feGaussianBlur stdDeviation="8"/>
<feColorMatrix type="matrix" values="0 0 0 0 0.0705882 0 0 0 0 0.0784314 0 0 0 0 0.243137 0 0 0 0.06 0"/>
<feBlend mode="normal" in2="BackgroundImageFix" result="effect1_dropShadow"/>
<feBlend mode="normal" in="SourceGraphic" in2="effect1_dropShadow" result="shape"/>
</filter>
<clipPath id="clip0">
<rect width="1440" height="1214" fill="white" transform="translate(-34 -575)"/>
</clipPath>
</defs>
</svg>
