<svg width="16" height="16" viewBox="0 0 16 16" fill="none" xmlns="http://www.w3.org/2000/svg">
<path d="M2.5 14.5V2.12937C2.50015 2.08564 2.51178 2.04271 2.53371 2.00487C2.55565 1.96704 2.58712 1.93562 2.625 1.91375C2.86906 1.77063 3.52875 1.5 5 1.5C7 1.5 9.53125 3 11 3C11.8292 2.99785 12.6497 2.83031 13.4134 2.50719C13.4229 2.50322 13.4333 2.50167 13.4435 2.50266C13.4538 2.50366 13.4636 2.50717 13.4722 2.5129C13.4808 2.51862 13.4878 2.52637 13.4926 2.53546C13.4975 2.54455 13.5 2.5547 13.5 2.565V9.42C13.4999 9.4442 13.4928 9.46786 13.4796 9.48811C13.4663 9.50836 13.4475 9.52432 13.4253 9.53406C13.1678 9.64687 12.2603 10 11 10C9.5 10 7 9 5 9C3 9 2.5 9.5 2.5 9.5" stroke="#44506D" stroke-width="1.5" stroke-miterlimit="10" stroke-linecap="round"/>
</svg>
