<svg width="9" height="18" viewBox="0 0 9 18" fill="none" xmlns="http://www.w3.org/2000/svg">
<path d="M5.89503 8.50556L5.89503 11.5932L4.87284 12.6154L5.89464 13.6372L4.87284 14.659L5.89464 15.6808L4.19151 17.3839L2.48838 15.6808V8.50517C2.04502 8.3041 1.64194 8.02405 1.29883 7.67869C0.68192 7.06157 0.278467 6.26337 0.147397 5.40068C0.0163278 4.53798 0.164506 3.65598 0.570293 2.88348C0.97608 2.11097 1.61822 1.48844 2.40293 1.10679C3.18763 0.725146 4.07381 0.604377 4.93203 0.762124C5.79024 0.91987 6.57555 1.34787 7.17326 1.98361C7.77096 2.61936 8.14975 3.42955 8.25432 4.29585C8.35888 5.16216 8.18373 6.03921 7.75445 6.79891C7.32518 7.55861 6.66426 8.16116 5.86822 8.51858L5.89464 8.50517L5.89503 8.50556ZM5.21408 2.05533L5.21293 2.05419C5.01085 1.85211 4.7534 1.71449 4.47311 1.65872C4.19282 1.60295 3.9023 1.63155 3.63826 1.74089C3.37422 1.85023 3.14854 2.0354 2.98973 2.27299C2.83093 2.51059 2.74614 2.78994 2.74608 3.07572C2.74603 3.3615 2.83071 3.64088 2.98943 3.87853C3.14815 4.11618 3.37376 4.30144 3.63776 4.41088C3.90175 4.52032 4.19227 4.54902 4.47258 4.49336C4.75289 4.4377 5.0104 4.30017 5.21255 4.09817L5.21293 4.09779C5.4836 3.82692 5.63574 3.45972 5.63595 3.0768C5.63617 2.69388 5.48444 2.32651 5.21408 2.05533Z" fill="#6C6C6C"/>
</svg>
