<svg width="20" height="20" viewBox="0 0 20 20" fill="none" xmlns="http://www.w3.org/2000/svg">
<g opacity="0.4">
<path d="M0 10C0 4.47715 4.47715 0 10 0C15.5228 0 20 4.47715 20 10C20 15.5228 15.5228 20 10 20C4.47715 20 0 15.5228 0 10Z" fill="#0077B5"/>
<path fill-rule="evenodd" clip-rule="evenodd" d="M7.21611 6.17612C7.21611 6.82992 6.72398 7.35306 5.93379 7.35306H5.91931C5.15848 7.35306 4.66663 6.82992 4.66663 6.17612C4.66663 5.5085 5.17346 5 5.94872 5C6.72398 5 7.2014 5.5085 7.21611 6.17612ZM7.06678 8.2824V15.0914H4.80057V8.2824H7.06678ZM15.2397 15.0915L15.2397 11.1874C15.2397 9.09593 14.1218 8.12254 12.6305 8.12254C11.4273 8.12254 10.8886 8.78343 10.5878 9.24705V8.28261H8.32129C8.35116 8.92153 8.32129 15.0917 8.32129 15.0917H10.5878V11.2889C10.5878 11.0854 10.6025 10.8824 10.6624 10.7367C10.8262 10.3302 11.1991 9.90925 11.8252 9.90925C12.6456 9.90925 12.9735 10.5336 12.9735 11.4486V15.0915H15.2397Z" fill="white"/>
</g>
</svg>
