<svg width="10" height="18" viewBox="0 0 10 18" fill="none" xmlns="http://www.w3.org/2000/svg">
<path d="M5 0C3.67392 0 2.40215 0.526784 1.46447 1.46447C0.526784 2.40215 0 3.67392 0 5C0 7.762 5 17.08 5 17.08C5 17.08 10 7.76267 10 5C10 3.67392 9.47322 2.40215 8.53553 1.46447C7.59785 0.526784 6.32608 0 5 0V0ZM5 7.38933C4.36631 7.38933 3.75857 7.1376 3.31049 6.68951C2.8624 6.24143 2.61067 5.63369 2.61067 5C2.61067 4.36631 2.8624 3.75857 3.31049 3.31049C3.75857 2.8624 4.36631 2.61067 5 2.61067C5.63369 2.61067 6.24143 2.8624 6.68951 3.31049C7.1376 3.75857 7.38933 4.36631 7.38933 5C7.38933 5.63369 7.1376 6.24143 6.68951 6.68951C6.24143 7.1376 5.63369 7.38933 5 7.38933V7.38933Z" fill="#6C6C6C"/>
</svg>
