<svg width="22" height="22" viewBox="0 0 22 22" fill="none" xmlns="http://www.w3.org/2000/svg">
<path fill-rule="evenodd" clip-rule="evenodd" d="M13.8679 13.2243H14.5789L18.3949 17.0583C18.7639 17.4273 18.7639 18.0303 18.3949 18.3993C18.0259 18.7683 17.4229 18.7683 17.0539 18.3993L13.2289 14.5743V13.8633L12.9859 13.6113C11.7259 14.6913 10.0069 15.2493 8.17991 14.9433C5.67791 14.5203 3.67991 12.4323 3.37391 9.91229C2.90591 6.10529 6.10991 2.90129 9.91691 3.36929C12.4369 3.67529 14.5249 5.67329 14.9479 8.17529C15.2539 10.0023 14.6959 11.7213 13.6159 12.9813L13.8679 13.2243ZM5.12891 9.17429C5.12891 11.4153 6.93791 13.2243 9.17891 13.2243C11.4199 13.2243 13.2289 11.4153 13.2289 9.17429C13.2289 6.93329 11.4199 5.12429 9.17891 5.12429C6.93791 5.12429 5.12891 6.93329 5.12891 9.17429Z" fill="#0E501D"/>
</svg>
