<svg width="36" height="36" viewBox="0 0 36 36" fill="none" xmlns="http://www.w3.org/2000/svg">
<rect width="36" height="36" rx="18" fill="#3772FF"/>
<path fill-rule="evenodd" clip-rule="evenodd" d="M20.8677 20.2244H21.5787L25.3947 24.0584C25.7637 24.4274 25.7637 25.0304 25.3947 25.3994C25.0257 25.7684 24.4227 25.7684 24.0537 25.3994L20.2287 21.5744V20.8634L19.9857 20.6114C18.7257 21.6914 17.0067 22.2494 15.1797 21.9434C12.6777 21.5204 10.6797 19.4324 10.3737 16.9124C9.90569 13.1054 13.1097 9.90142 16.9167 10.3694C19.4367 10.6754 21.5247 12.6734 21.9477 15.1754C22.2537 17.0024 21.6957 18.7214 20.6157 19.9814L20.8677 20.2244ZM12.1287 16.1744C12.1287 18.4154 13.9377 20.2244 16.1787 20.2244C18.4197 20.2244 20.2287 18.4154 20.2287 16.1744C20.2287 13.9334 18.4197 12.1244 16.1787 12.1244C13.9377 12.1244 12.1287 13.9334 12.1287 16.1744Z" fill="white"/>
</svg>
