<svg width="14" height="10" viewBox="0 0 14 10" fill="none" xmlns="http://www.w3.org/2000/svg">
<rect width="14" height="10" fill="#E5E5E5"/>
<g clip-path="url(#clip0)">
<rect width="1440" height="925" transform="translate(-724 -833)" fill="#F8FAFC"/>
<rect x="-723" y="-58" width="1440" height="150" fill="#181F30"/>
<g opacity="0.4">
<path d="M11.8058 2.53802C11.8125 2.64293 11.8125 2.7523 11.8125 2.85945C11.8125 6.13623 9.31697 9.91078 4.7567 9.91078C3.35045 9.91078 2.04688 9.5023 0.948662 8.79918C1.14955 8.8215 1.34152 8.83043 1.54688 8.83043C2.70759 8.83043 3.77456 8.43757 4.625 7.77239C3.53572 7.75007 2.62054 7.03578 2.30804 6.05364C2.68973 6.10945 3.03348 6.10945 3.42634 6.009C2.86546 5.89505 2.36133 5.59043 1.99959 5.14691C1.63785 4.70338 1.44082 4.1483 1.44197 3.57596V3.54471C1.77009 3.72998 2.15625 3.84382 2.56027 3.85944C2.22063 3.63309 1.94209 3.32643 1.74936 2.96665C1.55662 2.60688 1.45563 2.2051 1.45536 1.79694C1.45536 1.33489 1.57589 0.913016 1.79241 0.546945C2.41496 1.31332 3.19181 1.94012 4.07247 2.3866C4.95312 2.83308 5.91788 3.08925 6.90402 3.13846C6.55357 1.4532 7.8125 0.0893555 9.32589 0.0893555C10.0402 0.0893555 10.683 0.388463 11.1362 0.870605C11.6964 0.765695 12.2321 0.555873 12.7098 0.274623C12.5246 0.848284 12.1362 1.33266 11.6205 1.63846C12.1205 1.58489 12.6027 1.4465 13.0491 1.2523C12.7121 1.74784 12.2902 2.18757 11.8058 2.53802Z" fill="white"/>
</g>
</g>
<defs>
<clipPath id="clip0">
<rect width="1440" height="925" fill="white" transform="translate(-724 -833)"/>
</clipPath>
</defs>
</svg>
