<svg width="20" height="20" viewBox="0 0 20 20" fill="none" xmlns="http://www.w3.org/2000/svg">
<g opacity="0.4">
<path d="M14.8058 7.53789C14.8124 7.6428 14.8124 7.75218 14.8124 7.85932C14.8124 11.1361 12.3169 14.9107 7.75664 14.9107C6.35039 14.9107 5.04682 14.5022 3.94861 13.7991C4.1495 13.8214 4.34147 13.8303 4.54682 13.8303C5.70754 13.8303 6.7745 13.4374 7.62495 12.7723C6.53566 12.7499 5.62048 12.0357 5.30798 11.0535C5.68968 11.1093 6.03343 11.1093 6.42629 11.0089C5.86541 10.8949 5.36128 10.5903 4.99954 10.1468C4.6378 9.70326 4.44077 9.14818 4.44191 8.57584V8.54459C4.77004 8.72986 5.1562 8.8437 5.56022 8.85932C5.22058 8.63297 4.94204 8.32631 4.7493 7.96653C4.55656 7.60675 4.45558 7.20498 4.45531 6.79682C4.45531 6.33477 4.57584 5.91289 4.79236 5.54682C5.41491 6.3132 6.19176 6.94 7.07241 7.38648C7.95307 7.83296 8.91782 8.08913 9.90397 8.13834C9.55352 6.45307 10.8124 5.08923 12.3258 5.08923C13.0401 5.08923 13.683 5.38834 14.1361 5.87048C14.6964 5.76557 15.2321 5.55575 15.7098 5.2745C15.5245 5.84816 15.1361 6.33254 14.6205 6.63834C15.1205 6.58477 15.6026 6.44638 16.0491 6.25218C15.712 6.74772 15.2901 7.18745 14.8058 7.53789Z" fill="white"/>
<path d="M10 0C4.47768 0 0 4.47768 0 10C0 15.5223 4.47768 20 10 20C15.5223 20 20 15.5223 20 10C20 4.47768 15.5223 0 10 0ZM14.8058 7.53795C14.8125 7.64286 14.8125 7.75223 14.8125 7.85938C14.8125 11.1362 12.317 14.9107 7.7567 14.9107C6.35045 14.9107 5.04688 14.5022 3.94866 13.7991C4.14955 13.8214 4.34152 13.8304 4.54688 13.8304C5.70759 13.8304 6.77455 13.4375 7.625 12.7723C6.53571 12.75 5.62054 12.0357 5.30804 11.0536C5.68973 11.1094 6.03348 11.1094 6.42634 11.0089C5.86546 10.895 5.36133 10.5904 4.99959 10.1468C4.63785 9.70331 4.44082 9.14823 4.44196 8.57589V8.54464C4.77009 8.72991 5.15625 8.84375 5.56027 8.85938C5.22063 8.63302 4.94209 8.32636 4.74936 7.96658C4.55662 7.60681 4.45563 7.20503 4.45536 6.79688C4.45536 6.33482 4.57589 5.91295 4.79241 5.54688C5.41496 6.31325 6.19181 6.94005 7.07247 7.38653C7.95312 7.83301 8.91788 8.08918 9.90402 8.13839C9.55357 6.45313 10.8125 5.08929 12.3259 5.08929C13.0402 5.08929 13.683 5.38839 14.1362 5.87054C14.6964 5.76562 15.2321 5.5558 15.7098 5.27455C15.5246 5.84821 15.1362 6.33259 14.6205 6.63839C15.1205 6.58482 15.6027 6.44643 16.0491 6.25223C15.7121 6.74777 15.2902 7.1875 14.8058 7.53795Z" fill="#289EE8"/>
</g>
</svg>
