<svg width="18" height="18" viewBox="0 0 20 20" fill="none" xmlns="http://www.w3.org/2000/svg">
<path d="M16.25 0H3.75C1.67969 0 0 1.67969 0 3.75V16.25C0 18.3203 1.67969 20 3.75 20H16.25C18.3203 20 20 18.3203 20 16.25V3.75C20 1.67969 18.3203 0 16.25 0ZM18.6538 6.79086C18.6538 6.89603 18.5697 6.98317 18.4615 6.98317H17.4219L12.7133 17.0072C12.6833 17.0733 12.6172 17.1154 12.5421 17.1184H12.5391C12.4669 17.1184 12.4008 17.0763 12.3678 17.0102L10.1322 12.5781L7.72236 17.0162C7.6863 17.0793 7.6262 17.1154 7.54808 17.1184C7.47596 17.1154 7.40986 17.0733 7.37981 17.0072L2.61719 6.98317H1.53846C1.43329 6.98317 1.34615 6.89603 1.34615 6.79086V6.28305C1.34615 6.17788 1.43329 6.09075 1.53846 6.09075H5.37861C5.48678 6.09075 5.57091 6.17788 5.57091 6.28305V6.79086C5.57091 6.89603 5.48678 6.98317 5.37861 6.98317H4.55228L7.83954 14.5643L9.54928 11.3672L7.37981 6.98317H6.85998C6.7518 6.98317 6.66767 6.89904 6.66767 6.79086V6.28305C6.66767 6.17788 6.7518 6.09075 6.85998 6.09075H9.69952C9.80469 6.09075 9.89183 6.17788 9.89183 6.28305V6.79086C9.89183 6.89904 9.80469 6.98317 9.69952 6.98317H9.20072L10.4477 9.71154L11.9321 6.98317H11.0216C10.9135 6.98317 10.8293 6.89904 10.8293 6.79086V6.28305C10.8293 6.17788 10.9135 6.09075 11.0216 6.09075H13.78C13.8882 6.09075 13.9724 6.17788 13.9724 6.28305V6.79086C13.9724 6.89904 13.8882 6.98317 13.78 6.98317H13.1761L11.0096 10.9195L12.7734 14.5523L16.1809 6.98317H15.1022C14.997 6.98317 14.9099 6.89904 14.9099 6.79086V6.28305C14.9099 6.17788 14.997 6.09075 15.1022 6.09075H18.4615C18.5697 6.09075 18.6538 6.17788 18.6538 6.28305V6.79086Z" fill="#3772FF"/>
</svg>
