<svg width="252" height="17" viewBox="0 0 252 17" fill="none" xmlns="http://www.w3.org/2000/svg">
<path d="M6.7 1.12V11.36H15.5V16H0.6V1.12H6.7ZM33.6405 1.12V4.92H24.2005V6.52H33.3405V10.42H24.2005V12.16H33.7805V16H18.0805V1.12H33.6405ZM42.5756 8V16H36.6156V1.12H42.8156L50.4556 8.74V1.12H56.4156V16H50.5956L42.5756 8ZM68.1234 16.24C66.7234 16.24 65.5168 16.16 64.5034 16C63.5034 15.84 62.6634 15.6267 61.9834 15.36C61.3034 15.0933 60.7568 14.7867 60.3434 14.44C59.9301 14.0933 59.6168 13.7267 59.4034 13.34C59.1901 12.9533 59.0501 12.5667 58.9834 12.18C58.9168 11.78 58.8834 11.4067 58.8834 11.06V11H65.4434C65.4568 11.1333 65.4901 11.2867 65.5434 11.46C65.5968 11.6333 65.7168 11.8 65.9034 11.96C66.0901 12.12 66.3634 12.26 66.7234 12.38C67.0968 12.4867 67.6034 12.54 68.2434 12.54H68.3634C68.9768 12.54 69.4701 12.5067 69.8434 12.44C70.2168 12.3733 70.5034 12.2867 70.7034 12.18C70.9034 12.0733 71.0301 11.9533 71.0834 11.82C71.1501 11.6867 71.1834 11.5533 71.1834 11.42C71.1834 11.2733 71.1568 11.1333 71.1034 11C71.0501 10.8667 70.9301 10.7533 70.7434 10.66C70.5568 10.5667 70.2834 10.4933 69.9234 10.44C69.5768 10.3733 69.1034 10.3333 68.5034 10.32L66.3634 10.28C64.8968 10.2533 63.6968 10.1133 62.7634 9.86C61.8301 9.59333 61.0901 9.24667 60.5434 8.82C60.0101 8.39333 59.6368 7.90667 59.4234 7.36C59.2234 6.81333 59.1234 6.23333 59.1234 5.62V5.46C59.1234 4.78 59.2501 4.16 59.5034 3.6C59.7701 3.04 60.2301 2.56 60.8834 2.16C61.5368 1.76 62.4101 1.45333 63.5034 1.24C64.5968 1.01333 65.9768 0.899999 67.6434 0.899999H68.5834C70.4501 0.899999 71.9568 1.04667 73.1034 1.34C74.2501 1.62 75.1368 1.99333 75.7634 2.46C76.3901 2.91333 76.8034 3.43333 77.0034 4.02C77.2168 4.59333 77.3234 5.16667 77.3234 5.74V5.78H70.9034C70.8768 5.64667 70.8234 5.50667 70.7434 5.36C70.6768 5.2 70.5434 5.05333 70.3434 4.92C70.1568 4.78667 69.8834 4.68 69.5234 4.6C69.1768 4.52 68.7234 4.48 68.1634 4.48H68.0234C67.4501 4.48 66.9901 4.50667 66.6434 4.56C66.2968 4.6 66.0301 4.66667 65.8434 4.76C65.6568 4.85333 65.5301 4.96 65.4634 5.08C65.4101 5.2 65.3834 5.33333 65.3834 5.48C65.3834 5.62667 65.4168 5.76 65.4834 5.88C65.5501 6 65.6701 6.10667 65.8434 6.2C66.0301 6.28 66.2901 6.34667 66.6234 6.4C66.9568 6.44 67.3901 6.46667 67.9234 6.48L70.1234 6.52C71.6434 6.54667 72.8834 6.67333 73.8434 6.9C74.8034 7.11333 75.5568 7.41333 76.1034 7.8C76.6501 8.18667 77.0234 8.65333 77.2234 9.2C77.4368 9.74667 77.5434 10.3667 77.5434 11.06V11.3C77.5434 11.94 77.4368 12.56 77.2234 13.16C77.0234 13.7467 76.6034 14.2733 75.9634 14.74C75.3234 15.1933 74.4168 15.56 73.2434 15.84C72.0701 16.1067 70.5168 16.24 68.5834 16.24H68.1234ZM85.8522 16H79.7122V11.22H85.8522V16ZM97.1664 16.24C95.7664 16.24 94.5597 16.16 93.5464 16C92.5464 15.84 91.7064 15.6267 91.0264 15.36C90.3464 15.0933 89.7997 14.7867 89.3864 14.44C88.9731 14.0933 88.6597 13.7267 88.4464 13.34C88.2331 12.9533 88.0931 12.5667 88.0264 12.18C87.9597 11.78 87.9264 11.4067 87.9264 11.06V11H94.4864C94.4997 11.1333 94.5331 11.2867 94.5864 11.46C94.6397 11.6333 94.7597 11.8 94.9464 11.96C95.1331 12.12 95.4064 12.26 95.7664 12.38C96.1397 12.4867 96.6464 12.54 97.2864 12.54H97.4064C98.0197 12.54 98.5131 12.5067 98.8864 12.44C99.2597 12.3733 99.5464 12.2867 99.7464 12.18C99.9464 12.0733 100.073 11.9533 100.126 11.82C100.193 11.6867 100.226 11.5533 100.226 11.42C100.226 11.2733 100.2 11.1333 100.146 11C100.093 10.8667 99.9731 10.7533 99.7864 10.66C99.5997 10.5667 99.3264 10.4933 98.9664 10.44C98.6197 10.3733 98.1464 10.3333 97.5464 10.32L95.4064 10.28C93.9397 10.2533 92.7397 10.1133 91.8064 9.86C90.8731 9.59333 90.1331 9.24667 89.5864 8.82C89.0531 8.39333 88.6797 7.90667 88.4664 7.36C88.2664 6.81333 88.1664 6.23333 88.1664 5.62V5.46C88.1664 4.78 88.2931 4.16 88.5464 3.6C88.8131 3.04 89.2731 2.56 89.9264 2.16C90.5797 1.76 91.4531 1.45333 92.5464 1.24C93.6397 1.01333 95.0197 0.899999 96.6864 0.899999H97.6264C99.4931 0.899999 101 1.04667 102.146 1.34C103.293 1.62 104.18 1.99333 104.806 2.46C105.433 2.91333 105.846 3.43333 106.046 4.02C106.26 4.59333 106.366 5.16667 106.366 5.74V5.78H99.9464C99.9197 5.64667 99.8664 5.50667 99.7864 5.36C99.7197 5.2 99.5864 5.05333 99.3864 4.92C99.1997 4.78667 98.9264 4.68 98.5664 4.6C98.2197 4.52 97.7664 4.48 97.2064 4.48H97.0664C96.4931 4.48 96.0331 4.50667 95.6864 4.56C95.3397 4.6 95.0731 4.66667 94.8864 4.76C94.6997 4.85333 94.5731 4.96 94.5064 5.08C94.4531 5.2 94.4264 5.33333 94.4264 5.48C94.4264 5.62667 94.4597 5.76 94.5264 5.88C94.5931 6 94.7131 6.10667 94.8864 6.2C95.0731 6.28 95.3331 6.34667 95.6664 6.4C95.9997 6.44 96.4331 6.46667 96.9664 6.48L99.1664 6.52C100.686 6.54667 101.926 6.67333 102.886 6.9C103.846 7.11333 104.6 7.41333 105.146 7.8C105.693 8.18667 106.066 8.65333 106.266 9.2C106.48 9.74667 106.586 10.3667 106.586 11.06V11.3C106.586 11.94 106.48 12.56 106.266 13.16C106.066 13.7467 105.646 14.2733 105.006 14.74C104.366 15.1933 103.46 15.56 102.286 15.84C101.113 16.1067 99.5597 16.24 97.6264 16.24H97.1664ZM124.695 1.12V4.92H115.255V6.52H124.395V10.42H115.255V12.16H124.835V16H109.135V1.12H124.695ZM133.77 11.74V16H127.67V1.12H138.95C140.457 1.12 141.69 1.24667 142.65 1.5C143.624 1.74 144.384 2.08667 144.93 2.54C145.49 2.98 145.877 3.51333 146.09 4.14C146.304 4.75333 146.41 5.43333 146.41 6.18V6.46C146.41 7.22 146.297 7.92667 146.07 8.58C145.857 9.22 145.47 9.78 144.91 10.26C144.35 10.7267 143.584 11.0933 142.61 11.36C141.65 11.6133 140.43 11.74 138.95 11.74H133.77ZM133.77 7.66H138.35C138.71 7.66 139.004 7.62667 139.23 7.56C139.457 7.48 139.63 7.38667 139.75 7.28C139.87 7.16 139.95 7.02667 139.99 6.88C140.044 6.73333 140.07 6.58 140.07 6.42V6.38C140.07 6.24667 140.044 6.11333 139.99 5.98C139.95 5.83333 139.87 5.70667 139.75 5.6C139.63 5.48 139.457 5.38667 139.23 5.32C139.004 5.24 138.71 5.2 138.35 5.2H133.77V7.66ZM156.163 5.52L154.103 10.04H158.203L156.163 5.52ZM159.903 13.78H152.403L151.383 16H145.283L152.343 1.12H160.243L167.383 16H160.923L159.903 13.78ZM174.685 8V16H168.725V1.12H174.925L182.565 8.74V1.12H188.525V16H182.705L174.685 8ZM200.753 5.52L198.693 10.04H202.793L200.753 5.52ZM204.493 13.78H196.993L195.973 16H189.873L196.933 1.12H204.833L211.973 16H205.513L204.493 13.78ZM219.173 16H213.033V11.22H219.173V16ZM228.087 16H221.987V1.12H228.087V16ZM241.464 0.859999C242.877 0.859999 244.104 0.973333 245.144 1.2C246.197 1.42667 247.09 1.73333 247.824 2.12C248.557 2.49333 249.157 2.92667 249.624 3.42C250.09 3.91333 250.45 4.43333 250.704 4.98C250.97 5.52667 251.15 6.08 251.244 6.64C251.35 7.2 251.404 7.72667 251.404 8.22V8.82C251.404 9.31333 251.357 9.84 251.264 10.4C251.17 10.9467 250.99 11.5 250.724 12.06C250.457 12.6067 250.09 13.1333 249.624 13.64C249.157 14.1467 248.557 14.5933 247.824 14.98C247.09 15.3667 246.197 15.68 245.144 15.92C244.104 16.1467 242.877 16.26 241.464 16.26H240.544C239.13 16.26 237.904 16.1467 236.864 15.92C235.837 15.68 234.95 15.3667 234.204 14.98C233.47 14.5933 232.87 14.1467 232.404 13.64C231.937 13.1333 231.57 12.6067 231.304 12.06C231.05 11.5 230.87 10.9467 230.764 10.4C230.67 9.84 230.624 9.31333 230.624 8.82V8.22C230.624 7.72667 230.67 7.2 230.764 6.64C230.87 6.08 231.057 5.52667 231.324 4.98C231.59 4.43333 231.957 3.91333 232.424 3.42C232.89 2.92667 233.49 2.49333 234.224 2.12C234.957 1.73333 235.837 1.42667 236.864 1.2C237.904 0.973333 239.13 0.859999 240.544 0.859999H241.464ZM245.004 8.38C245.004 8.08667 244.957 7.76 244.864 7.4C244.784 7.04 244.604 6.7 244.324 6.38C244.044 6.06 243.637 5.79333 243.104 5.58C242.584 5.36667 241.884 5.26 241.004 5.26C240.11 5.26 239.397 5.36667 238.864 5.58C238.344 5.79333 237.944 6.06 237.664 6.38C237.384 6.7 237.204 7.04 237.124 7.4C237.044 7.76 237.004 8.08667 237.004 8.38V8.58C237.004 8.88667 237.05 9.22667 237.144 9.6C237.237 9.97333 237.424 10.32 237.704 10.64C237.984 10.96 238.384 11.2333 238.904 11.46C239.437 11.6733 240.144 11.78 241.024 11.78C241.904 11.78 242.604 11.6733 243.124 11.46C243.644 11.2333 244.044 10.96 244.324 10.64C244.604 10.32 244.784 9.97333 244.864 9.6C244.957 9.22667 245.004 8.88667 245.004 8.58V8.38Z" fill="#0E501D"/>
</svg>
