<svg width="304" height="406" viewBox="0 0 304 406" fill="none" xmlns="http://www.w3.org/2000/svg">
<path d="M151.702 390.524C151.702 390.524 161.059 370.77 183.427 354.386" stroke="#00501E" stroke-width="10.8049" stroke-miterlimit="10"/>
<path d="M152.904 189.046L152.59 319.629V476.629C152.59 526.837 162.427 574.746 180.28 618.536" stroke="#00501E" stroke-width="10.8049" stroke-miterlimit="10"/>
<path d="M154.39 196.854C152.964 221.391 165.792 250.067 190.179 270.304" stroke="#00501E" stroke-width="10.8049" stroke-miterlimit="10"/>
<path d="M153.902 189.611C155.634 227.262 176.003 246.829 196.656 256.46C200.15 258.089 203.704 259.393 207.284 260.388" stroke="#00501E" stroke-width="10.8049" stroke-miterlimit="10"/>
<path d="M152.846 390.524C152.846 390.524 143.489 370.77 121.121 354.386" stroke="#00501E" stroke-width="10.8049" stroke-miterlimit="10"/>
<path d="M151.644 189.046L151.958 319.629V476.629C151.958 526.837 142.121 574.746 124.268 618.536" stroke="#00501E" stroke-width="10.8049" stroke-miterlimit="10"/>
<path d="M150.158 196.854C151.584 221.391 138.756 250.067 114.369 270.304" stroke="#00501E" stroke-width="10.8049" stroke-miterlimit="10"/>
<path d="M150.647 189.611C148.915 227.262 128.545 246.829 107.893 256.46C104.399 258.089 100.845 259.393 97.2641 260.388" stroke="#00501E" stroke-width="10.8049" stroke-miterlimit="10"/>
<path d="M171.555 150.055C168.531 156.489 161.148 161.351 152.101 161.351C143.173 161.351 135.482 156.604 132.531 149.958" stroke="#00501E" stroke-width="8.34504" stroke-linejoin="round"/>
<path d="M118.854 130.255C118.854 136.886 113.479 142.261 106.848 142.261C100.216 142.261 94.8412 136.886 94.8412 130.255C94.8412 123.624 100.216 118.249 106.848 118.249C113.479 118.249 118.854 123.624 118.854 130.255Z" fill="#00501E"/>
<path d="M204.463 130.255C204.463 136.886 199.087 142.261 192.456 142.261C185.825 142.261 180.45 136.886 180.45 130.255C180.45 123.624 185.825 118.249 192.456 118.249C199.087 118.249 204.463 123.624 204.463 130.255Z" fill="#00501E"/>
<path d="M78.3452 134.846C78.3452 120.094 92.2815 108.136 109.472 108.136C126.663 108.136 140.599 120.094 140.599 134.846" stroke="#00501E" stroke-width="8.34504" stroke-linejoin="round"/>
<path d="M163.954 134.846C163.954 120.094 177.89 108.136 195.081 108.136C212.272 108.136 226.208 120.094 226.208 134.846" stroke="#00501E" stroke-width="8.34504" stroke-linejoin="round"/>
<path d="M206.529 61.6108C205.418 62.7212 204.367 63.8494 203.301 64.9742C203.343 63.426 203.397 61.884 203.397 60.3138C203.397 58.7004 203.375 57.0979 203.331 55.5071C201.51 -10.5024 102.023 -10.5024 100.202 55.5071C100.158 57.0979 100.136 58.7004 100.136 60.3138C100.136 61.884 100.19 63.426 100.232 64.9742C99.1659 63.8494 98.1145 62.7212 97.0042 61.6108C95.8629 60.4696 94.7127 59.3516 93.5563 58.257C45.5923 12.8699 -24.7538 83.216 20.6333 131.18C21.7279 132.336 22.8452 133.486 23.9871 134.628C78.7494 189.39 151.755 189.561 151.755 189.561C151.755 189.561 224.783 189.39 279.546 134.628C280.688 133.486 281.805 132.336 282.899 131.18C328.287 83.216 257.941 12.8699 209.976 58.257C208.82 59.3516 207.67 60.4696 206.529 61.6108Z" stroke="#00501E" stroke-width="11.3234" stroke-miterlimit="10"/>
</svg>
